<!DOCTYPE svg PUBLIC "-//W3C//DTD SVG 1.1//EN" "http://www.w3.org/Graphics/SVG/1.1/DTD/svg11.dtd">
<!-- Uploaded to: SVG Repo, www.svgrepo.com, Transformed by: SVG Repo Mixer Tools -->
<svg fill="#03bd00" height="800px" width="800px" version="1.1" id="Layer_1" xmlns="http://www.w3.org/2000/svg" xmlns:xlink="http://www.w3.org/1999/xlink" viewBox="0 0 512 512" xml:space="preserve" stroke="#03bd00">
<g id="SVGRepo_bgCarrier" stroke-width="0"/>
<g id="SVGRepo_tracerCarrier" stroke-linecap="round" stroke-linejoin="round"/>
<g id="SVGRepo_iconCarrier"> <g> <g> <path d="M256,0C114.837,0,0,114.837,0,256s114.837,256,256,256s256-114.837,256-256S397.163,0,256,0z M170.667,128 c35.285,0,64,28.715,64,64c0,11.776-9.557,21.333-21.333,21.333C201.558,213.333,192,203.776,192,192 c0-11.755-9.579-21.333-21.333-21.333c-11.755,0-21.333,9.579-21.333,21.333c0,11.776-9.557,21.333-21.333,21.333 s-21.333-9.557-21.333-21.333C106.667,156.715,135.381,128,170.667,128z M384,405.333H128c-11.776,0-21.333-9.557-21.333-21.333 c0-79.552,69.781-149.333,149.333-149.333S405.333,304.448,405.333,384C405.333,395.776,395.776,405.333,384,405.333z M384,213.333c-11.776,0-21.333-9.557-21.333-21.333c0-11.755-9.579-21.333-21.333-21.333C329.579,170.667,320,180.245,320,192 c0,11.776-9.557,21.333-21.333,21.333s-21.333-9.557-21.333-21.333c0-35.285,28.715-64,64-64c35.285,0,64,28.715,64,64 C405.333,203.776,395.776,213.333,384,213.333z"/> </g> </g> </g>
</svg>