<?xml version="1.0" encoding="UTF-8"?>
<svg version="1.1" xmlns="http://www.w3.org/2000/svg" width="637" height="258">
<path d="M0 0 C1.0823291 0.41064697 1.0823291 0.41064697 2.18652344 0.82958984 C13.48506746 5.13491332 13.48506746 5.13491332 15.07421875 7.8046875 C14.96002913 11.18229627 13.44226393 13.09675843 11.625 15.9375 C10.79174535 17.26795289 9.96127514 18.60015164 9.1328125 19.93359375 C8.64844727 20.70944824 8.16408203 21.48530273 7.66503906 22.28466797 C4.56913152 27.33344857 1.60577563 32.46107074 -1.37716675 37.5770874 C-2.49773577 39.49612238 -3.62226085 41.41277829 -4.74829102 43.32861328 C-7.84857743 48.6042765 -10.94486727 53.8802909 -13.95703125 59.20703125 C-14.36695313 59.92117187 -14.776875 60.6353125 -15.19921875 61.37109375 C-16.22196273 63.15461571 -17.23081077 64.94608732 -18.23828125 66.73828125 C-19.11033203 67.85783203 -19.11033203 67.85783203 -20 69 C-24.45769426 69 -25.38198191 68.35591876 -29 66 C-46.11744228 55.75028305 -66.81876673 48.66696136 -86.875 48.5 C-87.59381348 48.49355469 -88.31262695 48.48710938 -89.05322266 48.48046875 C-94.08731973 48.60432635 -97.60129911 49.72082332 -102 52 C-104.19078127 54.23204449 -104.19078127 54.23204449 -105 57 C-104.1155479 61.53281699 -101.73260215 63.48455072 -98 66 C-87.79501277 71.8584186 -76.13457022 74.7126669 -64.875 77.875 C-38.46403182 85.32769502 -13.02278997 93.33668561 7 113 C7.56332031 113.55042969 8.12664062 114.10085937 8.70703125 114.66796875 C21.5589108 128.40150758 24.47621129 146.48165823 24.21875 164.53515625 C23.87245011 174.52807257 21.67655695 184.14336988 17 193 C16.60296875 193.84691406 16.2059375 194.69382813 15.796875 195.56640625 C5.72999321 215.90266458 -13.33440516 227.35437656 -34.125 234.43359375 C-49.2944921 239.33379615 -65.1039352 241.44285425 -81 242 C-82.65708984 242.061875 -82.65708984 242.061875 -84.34765625 242.125 C-122.28518915 242.80932979 -159.57890539 235.66464634 -192.875 217.25 C-193.53540283 216.88543701 -194.19580566 216.52087402 -194.8762207 216.14526367 C-198.40778054 214.12557925 -201.28145199 212.03275206 -204 209 C-203.68885254 208.4831665 -203.37770508 207.96633301 -203.05712891 207.43383789 C-197.60510863 198.37348052 -192.16162377 189.30908504 -186.8125 180.1875 C-180.05655441 168.67452876 -173.24920557 157.21179383 -166 146 C-162.89778294 146.64265207 -160.47552109 147.70879861 -157.71875 149.2578125 C-134.02145328 162.2916699 -101.51047648 175.64074932 -73.890625 168.6875 C-71.82763777 168.05635288 -71.82763777 168.05635288 -69.875 166.25 C-68.61829488 163.01847255 -68.92631808 161.28815087 -70 158 C-76.23536465 149.18448445 -89.62056723 147.11798745 -99.5 144.6875 C-116.97241649 140.17014972 -133.10044524 133.48571743 -149 125 C-149.92039063 124.52175781 -150.84078125 124.04351562 -151.7890625 123.55078125 C-166.89883702 115.18044584 -179.58482882 100.76646521 -184.56201172 84.12036133 C-190.13662562 62.32665443 -186.0710198 39.18811279 -175 20 C-173.4430707 17.46897095 -171.90788737 15.28946485 -170 13 C-169.34 13 -168.68 13 -168 13 C-167.76539063 12.42765625 -167.53078125 11.8553125 -167.2890625 11.265625 C-160.48351411 -0.69564186 -141.88749877 -7.67700345 -129.35546875 -11.1953125 C-86.60828136 -21.44667525 -40.68448353 -15.94490143 0 0 Z " fill="#A01918" transform="translate(204,16)"/>
<path d="M0 0 C11.09134604 0.00371321 22.15548567 0.59387062 33.22753906 1.20361328 C35.54424193 1.32853353 37.86131681 1.44674253 40.17871094 1.55810547 C77.99062627 3.37681138 77.99062627 3.37681138 87.75683594 12.88769531 C88.21703125 13.44585937 88.67722656 14.00402344 89.15136719 14.57910156 C89.61929688 15.1346875 90.08722656 15.69027344 90.56933594 16.26269531 C91.02953125 16.88273437 91.48972656 17.50277344 91.96386719 18.14160156 C92.50785156 18.85058594 93.05183594 19.55957031 93.61230469 20.29003906 C95.52355006 24.32243536 95.45608183 27.91832607 95.40136719 32.32910156 C95.39306885 33.17972168 95.38477051 34.0303418 95.3762207 34.90673828 C95.06171735 46.60268165 90.42559348 55.00673302 81.95605469 63.04785156 C81.00085938 63.92957031 81.00085938 63.92957031 80.02636719 64.82910156 C77.76892899 67.06094522 77.0184152 67.9584761 76.08886719 71.07910156 C77.01680053 74.32686827 77.87819247 75.36686478 80.12402344 77.79003906 C83.84004092 81.92919085 87.07361049 86.28736999 90.27636719 90.82910156 C95.67519839 98.40020168 101.23294702 105.81947783 106.96386719 113.14160156 C106.63386719 113.80160156 106.30386719 114.46160156 105.96386719 115.14160156 C105.43019531 114.76648438 104.89652344 114.39136719 104.34667969 114.00488281 C93.09059813 106.27362956 82.836828 101.13928584 68.96386719 102.14160156 C67.76761719 102.49222656 66.57136719 102.84285156 65.33886719 103.20410156 C61.96386719 103.14160156 61.96386719 103.14160156 59.89746094 101.41503906 C56.13090321 97.26696996 53.06646738 92.79550185 49.96386719 88.14160156 C48.68200458 86.49232611 47.36655786 84.86884069 46.02636719 83.26660156 C45.37796875 82.48542969 44.72957031 81.70425781 44.06152344 80.89941406 C42.06468152 78.88802838 42.06468152 78.88802838 39.20996094 78.88378906 C38.46875 78.96886719 37.72753906 79.05394531 36.96386719 79.14160156 C36.98707031 80.20121094 37.01027344 81.26082031 37.03417969 82.35253906 C37.05293663 83.74055286 37.07113691 85.12857427 37.08886719 86.51660156 C37.105625 87.21527344 37.12238281 87.91394531 37.13964844 88.63378906 C37.15730985 90.47057642 37.06689979 92.30762119 36.96386719 94.14160156 C33.94640899 97.15905976 30.4533919 96.48106217 26.40136719 96.57910156 C17.82281327 96.91953381 10.97512287 97.6884027 3.96386719 103.14160156 C2.64386719 103.14160156 1.32386719 103.14160156 -0.03613281 103.14160156 C-0.03169159 102.44036163 -0.02725037 101.7391217 -0.02267456 101.01663208 C0.45117388 60.80791104 0.45117388 60.80791104 -0.97363281 20.64160156 C-1.0171991 19.96389709 -1.06076538 19.28619263 -1.10565186 18.58795166 C-1.59237305 11.18101335 -1.59237305 11.18101335 -2.63208008 3.83886719 C-2.76541748 2.94876953 -2.89875488 2.05867188 -3.03613281 1.14160156 C-2.03613281 0.14160156 -2.03613281 0.14160156 0 0 Z M38.96386719 30.14160156 C38.96386719 36.08160156 38.96386719 42.02160156 38.96386719 48.14160156 C44.05873003 50.68903298 47.50759458 50.57261784 52.96386719 49.14160156 C57.07291457 46.87275705 59.45241619 44.46060677 61.15136719 40.07910156 C61.1473977 37.08495429 61.1473977 37.08495429 59.65136719 34.45410156 C55.005976 30.45690449 49.489565 29.32200855 43.46386719 28.89160156 C40.96757547 28.99141603 40.96757547 28.99141603 38.96386719 30.14160156 Z " fill="#A01919" transform="translate(443.0361328125,16.8583984375)"/>
<path d="M0 0 C1.46258495 0.00187033 2.92517054 0.00329132 4.38775635 0.00428772 C8.19508666 0.00806454 12.00237744 0.01785216 15.80969238 0.0289917 C19.71166449 0.03931113 23.61364312 0.04380766 27.515625 0.04882812 C35.14064282 0.05947992 42.76562832 0.0764965 50.390625 0.09765625 C50.66083969 0.7087323 50.93105438 1.31980835 51.2094574 1.94940186 C51.56629105 2.75468323 51.92312469 3.5599646 52.29077148 4.38964844 C52.81984352 5.58470001 52.81984352 5.58470001 53.35960388 6.80389404 C54.65577291 9.68754353 56.03627011 12.52150303 57.453125 15.34765625 C57.93910156 16.3221875 58.42507813 17.29671875 58.92578125 18.30078125 C60.31530814 20.95385127 61.84974968 23.52953072 63.390625 26.09765625 C35.175625 26.59265625 35.175625 26.59265625 6.390625 27.09765625 C6.390625 30.39765625 6.390625 33.69765625 6.390625 37.09765625 C12.26871043 39.6397721 18.06218985 39.44605955 24.3515625 39.51171875 C25.49726715 39.5310849 26.6429718 39.55045105 27.82339478 39.57040405 C31.47072991 39.6300241 35.1180969 39.67651543 38.765625 39.72265625 C41.24350309 39.76085215 43.72136814 39.79990482 46.19921875 39.83984375 C52.26290472 39.93571128 58.32666974 40.0208101 64.390625 40.09765625 C64.720625 40.75765625 65.050625 41.41765625 65.390625 42.09765625 C65.01550781 42.51015625 64.64039063 42.92265625 64.25390625 43.34765625 C59.40977764 48.81407846 55.63071387 54.56064973 52.390625 61.09765625 C51.45903564 61.1227124 50.52744629 61.14776855 49.56762695 61.17358398 C46.04687656 61.26982467 42.52623123 61.36897404 39.00561523 61.4699707 C37.49392807 61.51276791 35.98220942 61.55447001 34.47045898 61.5949707 C18.93548426 60.96489593 18.93548426 60.96489593 4.390625 64.09765625 C4.390625 67.06765625 4.390625 70.03765625 4.390625 73.09765625 C5.00957138 73.09543564 5.62851776 73.09321503 6.26622009 73.09092712 C12.7394045 73.06871156 19.21257797 73.05368204 25.68579102 73.04272461 C28.09790487 73.03771251 30.51001571 73.03090109 32.92211914 73.0222168 C36.39990993 73.01001402 39.87766037 73.00439657 43.35546875 73 C44.42457993 72.99483871 45.4936911 72.98967743 46.59519958 72.98435974 C52.61301932 72.98391429 58.42312802 73.31124192 64.390625 74.09765625 C63.6663801 75.89131809 62.93588886 77.68245777 62.203125 79.47265625 C61.79707031 80.47039062 61.39101563 81.468125 60.97265625 82.49609375 C58.94344449 87.115682 56.67889281 91.60198212 54.390625 96.09765625 C43.28025886 96.66586866 32.17259104 97.09798701 21.05078125 97.3515625 C20.1462471 97.37230331 19.24171295 97.39304413 18.30976868 97.41441345 C13.73925677 97.51769115 9.16868829 97.61463029 4.59790039 97.70483398 C2.87516111 97.74194835 1.15242341 97.77913609 -0.5703125 97.81640625 C-1.7365641 97.83671654 -1.7365641 97.83671654 -2.92637634 97.85743713 C-14.53168416 98.00760168 -14.53168416 98.00760168 -24.609375 103.09765625 C-25.269375 103.09765625 -25.929375 103.09765625 -26.609375 103.09765625 C-28.81850796 43.1589423 -28.81850796 43.1589423 -28.796875 19.47265625 C-28.7976001 18.68469666 -28.7983252 17.89673706 -28.79907227 17.0848999 C-28.79775605 4.6627994 -28.79775605 4.6627994 -27.609375 1.09765625 C-18.39660899 0.14224174 -9.25122029 -0.03527088 0 0 Z " fill="#9F1919" transform="translate(571.609375,15.90234375)"/>
<path d="M0 0 C1.07629417 -0.01226624 1.07629417 -0.01226624 2.17433167 -0.02478027 C4.54061053 -0.04952646 6.90683016 -0.06611621 9.27319336 -0.08056641 C10.08219023 -0.08589008 10.8911871 -0.09121376 11.72469902 -0.09669876 C16.00102667 -0.12337446 20.2773256 -0.14277316 24.55371094 -0.15722656 C28.09531264 -0.1706031 31.63634324 -0.19853063 35.17773438 -0.23925781 C39.45530317 -0.28844661 43.7323514 -0.31332912 48.01019096 -0.32045364 C49.64055509 -0.32718185 51.27090687 -0.34244465 52.9011097 -0.36634445 C55.17818599 -0.39784237 57.45323332 -0.39805831 59.73046875 -0.390625 C61.67428185 -0.40275528 61.67428185 -0.40275528 63.65736389 -0.41513062 C66.80053711 0.19287109 66.80053711 0.19287109 68.68260193 2.58627319 C69.71135482 4.98493206 70.71550853 7.3670853 71.61303711 9.81787109 C74.12460552 16.27806244 74.12460552 16.27806244 79.80053711 26.19287109 C60.66053711 26.19287109 41.52053711 26.19287109 21.80053711 26.19287109 C22.73211859 35.42655404 22.73211859 35.42655404 25.78149414 38.30395508 C30.25427387 39.62090405 34.46881509 39.52078181 39.10522461 39.41552734 C40.10256622 39.40653915 41.09990784 39.39755096 42.12747192 39.38829041 C45.31051722 39.35831451 48.49280103 39.30855306 51.67553711 39.25537109 C54.85108079 39.207432 58.02642185 39.1640751 61.20217896 39.13316345 C63.17567724 39.11352255 65.14910967 39.08402753 67.12228394 39.04322815 C72.44025519 38.98539515 76.77173857 39.43171061 81.80053711 41.19287109 C81.43702148 41.65435547 81.07350586 42.11583984 80.69897461 42.59130859 C76.19050596 48.44075766 72.10859977 54.57674577 68.80053711 61.19287109 C67.15239014 61.2226001 67.15239014 61.2226001 65.47094727 61.25292969 C61.35191881 61.32962872 57.2332144 61.41824092 53.11450195 61.51025391 C51.33982797 61.54828033 49.56508379 61.58317654 47.7902832 61.61474609 C34.17993992 61.84493105 34.17993992 61.84493105 20.80053711 64.19287109 C20.77991211 65.49224609 20.75928711 66.79162109 20.73803711 68.13037109 C20.72643555 68.86126953 20.71483398 69.59216797 20.70288086 70.34521484 C20.59492527 72.21019251 20.59492527 72.21019251 21.80053711 73.19287109 C23.61108736 73.28663163 25.42530912 73.31031219 27.23828125 73.30639648 C28.39940933 73.30632095 29.56053741 73.30624542 30.7568512 73.3061676 C32.02036911 73.30100632 33.28388702 73.29584503 34.58569336 73.29052734 C35.87164902 73.2891124 37.15760468 73.28769745 38.48252869 73.28623962 C41.90697154 73.28241527 45.3313722 73.27258571 48.75579834 73.26153564 C52.247919 73.25131974 55.74004645 73.24674162 59.23217773 73.24169922 C66.08831489 73.23096336 72.94442398 73.21388794 79.80053711 73.19287109 C79.31105129 79.10554906 77.4990303 83.41834077 74.73803711 88.63037109 C74.36098633 89.36191406 73.98393555 90.09345703 73.59545898 90.84716797 C72.67294415 92.63381062 71.73800591 94.41402938 70.80053711 96.19287109 C70.06519241 96.20095795 69.32984772 96.2090448 68.57221985 96.21737671 C61.58595996 96.29585471 54.59988015 96.38329751 47.61385822 96.48039818 C44.02369738 96.52999368 40.43356087 96.57632128 36.84326172 96.61474609 C33.36771578 96.65207028 29.892394 96.69854553 26.41704369 96.7509346 C24.46937382 96.77803556 22.52158425 96.79605727 20.57380676 96.81381226 C5.82877022 96.59925371 5.82877022 96.59925371 -7.19946289 102.19287109 C-8.18946289 102.19287109 -9.17946289 102.19287109 -10.19946289 102.19287109 C-10.4651785 93.41934311 -10.72618669 84.64568964 -10.98176575 75.8718605 C-11.10067696 71.79438848 -11.22099563 67.71696989 -11.3449707 63.63964844 C-11.83697692 47.42399131 -12.28952391 31.21387358 -12.32446289 14.98974609 C-12.32905518 13.81462463 -12.33364746 12.63950317 -12.33837891 11.42877197 C-12.33636475 10.3644696 -12.33435059 9.30016724 -12.33227539 8.20361328 C-12.33114746 7.27812683 -12.33001953 6.35264038 -12.32885742 5.39910889 C-12.19946289 3.19287109 -12.19946289 3.19287109 -11.19946289 1.19287109 C-7.59334943 -0.17786082 -3.81110588 0.03779864 0 0 Z " fill="#9F1919" transform="translate(555.199462890625,139.80712890625)"/>
<path d="M0 0 C13.57432121 0.75412896 26.93248002 2.9003412 40.3515625 5.01953125 C40.98771484 6.69015625 40.98771484 6.69015625 41.63671875 8.39453125 C46.00127648 19.78082564 50.57972426 31.04770015 55.796875 42.07421875 C59.03715915 48.92344213 61.42686852 55.73623536 62.73681641 63.22070312 C63.88922949 69.64398918 65.8409774 75.38186187 68.3515625 81.39453125 C68.70734375 82.26980469 69.063125 83.14507812 69.4296875 84.046875 C71.27630301 88.62735945 71.27630301 88.62735945 73.46875 93.04541016 C74.3515625 95.01953125 74.3515625 95.01953125 74.3515625 99.01953125 C73.3615625 99.03371094 72.3715625 99.04789062 71.3515625 99.0625 C63.67256089 99.29384207 57.32944983 99.68873482 51.3515625 105.01953125 C50.87203125 105.58929688 50.3925 106.1590625 49.8984375 106.74609375 C48.3515625 108.01953125 48.3515625 108.01953125 46.32421875 108.05078125 C43.38484639 106.51415887 42.95813611 104.57532761 41.7890625 101.51953125 C41.36625 100.43542969 40.9434375 99.35132812 40.5078125 98.234375 C39.29804695 94.87073633 38.18450981 91.4974599 37.22265625 88.0546875 C35.85242178 84.85337738 35.09777768 83.31795088 32.3515625 81.01953125 C28.09065423 80.38598967 23.89702525 80.55174478 19.6015625 80.70703125 C18.42722656 80.72958984 17.25289063 80.75214844 16.04296875 80.77539062 C13.14454613 80.83430165 10.24869823 80.91651494 7.3515625 81.01953125 C7.16980469 81.68339844 6.98804688 82.34726563 6.80078125 83.03125 C3.85420313 93.38205007 3.85420313 93.38205007 1.3515625 96.01953125 C-1.47960196 96.4619007 -3.82123869 96.61885972 -6.6484375 96.58203125 C-13.12442987 96.70831173 -18.3336435 97.47554404 -24.3515625 100.08203125 C-26.77101525 101.06956299 -29.07758446 101.58193924 -31.6484375 102.01953125 C-33.00126144 98.34635738 -32.25614613 96.37519359 -30.7734375 92.83203125 C-29.41580128 89.35538174 -28.44094225 86.434012 -28.2734375 82.70703125 C-27.86324759 77.3077873 -25.5339915 72.85932028 -23.33984375 67.96875 C-21.46014199 63.68799318 -19.89793677 59.32093325 -18.3984375 54.89453125 C-18.15262939 54.19142822 -17.90682129 53.4883252 -17.65356445 52.76391602 C-16.30175323 48.70382254 -15.41248483 44.77441147 -14.79296875 40.5390625 C-13.64720131 33.17157932 -11.48505882 26.17586026 -9.2800293 19.07006836 C-8.57596738 16.79988348 -7.88385874 14.52629604 -7.19335938 12.25195312 C-6.75067758 10.805782 -6.30734327 9.35981041 -5.86328125 7.9140625 C-5.65597885 7.23503372 -5.44867645 6.55600494 -5.23509216 5.85639954 C-3.41903493 0.02521412 -3.41903493 0.02521412 0 0 Z M16.3515625 35.01953125 C13.81785375 41.47331768 12.10059947 48.02841821 12.3515625 55.01953125 C14.18571835 57.28103878 14.18571835 57.28103878 16.91796875 57.25 C18.40103516 57.22873047 18.40103516 57.22873047 19.9140625 57.20703125 C20.90535156 57.20058594 21.89664063 57.19414063 22.91796875 57.1875 C25.29922122 57.29078559 25.29922122 57.29078559 26.3515625 56.01953125 C26.42342045 49.5810587 24.78332498 43.47196967 21.3515625 38.01953125 C18.80540865 35.93363381 18.80540865 35.93363381 16.3515625 35.01953125 Z " fill="#9F1919" transform="translate(359.6484375,16.98046875)"/>
<path d="M0 0 C1 1 1 1 1.11352539 4.32641602 C1.11336629 5.80225556 1.10767314 7.27810069 1.09765625 8.75390625 C1.0962413 9.52935287 1.09482635 10.3047995 1.09336853 11.10374451 C1.08775345 13.59003494 1.07519846 16.0762366 1.0625 18.5625 C1.05748694 20.24413933 1.0529237 21.92578006 1.04882812 23.60742188 C1.03777913 27.73831566 1.02050445 31.86914276 1 36 C0.23034912 35.6913501 -0.53930176 35.3827002 -1.33227539 35.06469727 C-16.12708844 29.16004094 -29.49102585 26.4930198 -45 32 C-48.09885116 33.8593107 -49.48159873 35.17527071 -51.375 38.1875 C-52.55032691 43.4764711 -51.6220439 48.26482492 -49.8125 53.3125 C-46.80444314 57.77272224 -43.10064998 59.88090493 -38 61.3125 C-27.22108517 63.29524353 -17.32616354 60.84546452 -7.27734375 57.15625 C-4.48984495 56.17281777 -1.92656295 55.3866285 1 55 C3.84202254 57.84202254 3.18623543 65.35984519 3.5625 69.1875 C3.79936523 71.03698242 3.79936523 71.03698242 4.04101562 72.92382812 C4.87029239 81.80619721 4.87029239 81.80619721 2.45263672 85.12255859 C-11.9398582 96.35480576 -35.95918387 96.33152255 -53.1875 94.25 C-59.22977206 93.2956033 -64.52319364 91.71300055 -70 89 C-71.051875 88.484375 -72.10375 87.96875 -73.1875 87.4375 C-80.886321 80.76518846 -86.96599599 68.99731121 -89 59 C-89.22916483 54.64894951 -89.18516909 50.29396978 -89.1875 45.9375 C-89.19974609 44.75994141 -89.21199219 43.58238281 -89.22460938 42.36914062 C-89.25765861 22.46248319 -89.25765861 22.46248319 -84 15 C-74.25023086 5.45148757 -61.25991558 0.21851869 -48 -2 C-46.91976562 -2.18304687 -45.83953125 -2.36609375 -44.7265625 -2.5546875 C-29.7892971 -4.33964374 -14.69122242 -2.96590578 0 0 Z " fill="#A01919" transform="translate(320,19)"/>
<path d="M0 0 C1.58847018 0.10098457 3.17211296 0.27921692 4.75 0.48828125 C5.74386719 0.61678467 6.73773438 0.74528809 7.76171875 0.87768555 C8.83035156 1.02117432 9.89898437 1.16466309 11 1.3125 C13.18743264 1.59687278 15.37493324 1.8807233 17.5625 2.1640625 C18.64917969 2.30618164 19.73585938 2.44830078 20.85546875 2.59472656 C25.23320018 3.15893729 29.61547528 3.67919791 34 4.1875 C35.07507813 4.31282104 35.07507813 4.31282104 36.171875 4.44067383 C37.78115274 4.62795353 39.39055917 4.81412708 41 5 C41.37769531 6.0209375 41.75539063 7.041875 42.14453125 8.09375 C45.63097172 17.35301671 49.48882354 26.3527993 53.6875 35.3125 C57.77166534 44.07466668 61.69269901 52.62558591 63.39233398 62.21313477 C64.53941338 68.57015074 66.4451308 74.23782601 68.9375 80.1875 C69.28490234 81.03763672 69.63230469 81.88777344 69.99023438 82.76367188 C71.9138021 87.45771244 71.9138021 87.45771244 73.95751953 92.10009766 C74.69019092 93.71080844 75.35277301 95.35309568 76 97 C75.67 97.66 75.34 98.32 75 99 C72.98591661 99.20702766 70.96129415 99.31458823 68.9375 99.375 C61.83161046 99.8191181 56.7719788 101.15102178 51.75 106.3125 C51.1725 106.869375 50.595 107.42625 50 108 C48.015625 107.80859375 48.015625 107.80859375 46 107 C42.5187293 101.3429351 40.8723827 95.45785838 39.22265625 89.05078125 C37.63830787 85.09750303 36.5651587 83.41224668 33 81 C28.87709398 80.39747101 24.84257326 80.52965093 20.6875 80.6875 C19.56537109 80.71005859 18.44324219 80.73261719 17.28710938 80.75585938 C14.52337464 80.81466224 11.76237446 80.89679599 9 81 C8.81824219 81.58007812 8.63648438 82.16015625 8.44921875 82.7578125 C7.92772534 84.37845357 7.38701493 85.99300142 6.83007812 87.60180664 C6.15406459 89.55488929 5.52334235 91.52360214 4.90625 93.49609375 C3 96 3 96 1.06640625 96.56689453 C-1.46383859 96.86949245 -3.95293343 96.98874593 -6.5 97.0625 C-13.81760228 97.50189716 -19.56043969 98.40680147 -26.1015625 101.9765625 C-28 103 -28 103 -30 103 C-31.34569793 99.33765753 -30.61602134 97.4020367 -29.125 93.875 C-27.66311881 90.13853079 -26.76082552 87.0048959 -26.5625 83 C-26.22473026 78.17364572 -24.64170685 74.75667846 -22.53515625 70.4453125 C-20.51208216 65.90497829 -18.90164194 61.2695734 -17.3125 56.5625 C-17.01520996 55.70487061 -16.71791992 54.84724121 -16.41162109 53.96362305 C-14.88174212 49.37008116 -13.76027528 44.92726764 -13.0390625 40.13671875 C-12.03954414 33.60229527 -10.14573033 27.51115831 -8.0625 21.25 C-7.71509766 20.17878906 -7.36769531 19.10757813 -7.00976562 18.00390625 C-1.67836045 1.67836045 -1.67836045 1.67836045 0 0 Z M18 36 C13.87030428 42.19454359 13.69937348 48.78496357 14 56 C18.23343031 58.40147504 21.19393684 58.23255144 26 58 C26.66 57.67 27.32 57.34 28 57 C27.48767761 50.08364774 26.07746219 42.65946929 21.4921875 37.20703125 C20.06071559 35.79036485 20.06071559 35.79036485 18 36 Z " fill="#9F1919" transform="translate(359,140)"/>
<path d="M0 0 C1 1 1 1 1.11352539 4.32641602 C1.11336629 5.80225556 1.10767314 7.27810069 1.09765625 8.75390625 C1.0962413 9.52935287 1.09482635 10.3047995 1.09336853 11.10374451 C1.08775345 13.59003494 1.07519846 16.0762366 1.0625 18.5625 C1.05748694 20.24413933 1.0529237 21.92578006 1.04882812 23.60742188 C1.03777913 27.73831566 1.02050445 31.86914276 1 36 C-0.019729 35.58282715 -1.03945801 35.1656543 -2.09008789 34.73583984 C-3.44670207 34.18568675 -4.80339576 33.63572967 -6.16015625 33.0859375 C-6.83002563 32.81128662 -7.49989502 32.53663574 -8.19006348 32.25366211 C-20.10380277 27.44157432 -29.73457989 27.0918281 -42.046875 30.63671875 C-45.50553643 32.23337595 -46.93982697 33.82752698 -49 37 C-50.81314953 43.86406608 -49.48591913 49.18736735 -46.25 55.3125 C-42.67905276 59.5777981 -38.46159918 61.36493033 -33 62 C-22.85897881 62.87533025 -12.83707461 60.31980928 -3.8046875 55.76953125 C-2 55 -2 55 1 55 C1.3389231 58.35362609 1.67011964 61.70797332 2 65.0625 C2.09539062 66.00544922 2.19078125 66.94839844 2.2890625 67.91992188 C3.31595131 78.44553213 3.31595131 78.44553213 3 83 C-3.44852772 90.49423491 -14.57140042 92.65271166 -24 94 C-37.1718098 94.9376089 -51.86979023 95.98021228 -64 90 C-64.81855469 89.62230469 -65.63710938 89.24460937 -66.48046875 88.85546875 C-73.62616062 84.89361949 -77.45145008 78.15093607 -81 71 C-81.54611938 69.98389648 -81.54611938 69.98389648 -82.10327148 68.94726562 C-85.61353907 61.58544362 -85.57797746 54.24621982 -85.46655273 46.26855469 C-85.43754881 44.00381143 -85.44598772 41.74141306 -85.45898438 39.4765625 C-85.44484792 29.51541693 -85.25992561 19.24731835 -77.96875 11.65234375 C-56.79741005 -6.11645942 -25.60638873 -6.11637751 0 0 Z " fill="#A01919" transform="translate(322,143)"/>
<path d="M0 0 C1.92875977 0.00483398 1.92875977 0.00483398 3.89648438 0.00976562 C5.2343757 0.01811823 6.57226632 0.02658314 7.91015625 0.03515625 C9.27538899 0.04017966 10.64062351 0.04474108 12.00585938 0.04882812 C15.32817082 0.06056774 18.65039033 0.07698946 21.97265625 0.09765625 C21.70891057 4.34791596 21.44227155 8.59798194 21.1730957 12.84790039 C21.08215531 14.28990926 20.99196853 15.73196588 20.90258789 17.17407227 C20.06184446 30.72460182 20.06184446 30.72460182 19.453125 35.578125 C18.70861986 41.7857779 18.52892803 48.03973709 18.30517578 54.28369141 C18.24974763 55.75401331 18.18747143 57.22409165 18.11865234 58.69384766 C18.01854466 60.83596223 17.93861972 62.97798235 17.86328125 65.12109375 C17.7864209 67.0225415 17.7864209 67.0225415 17.70800781 68.96240234 C17.74643305 72.02279081 17.74643305 72.02279081 19.10449219 74.09619141 C21.93821046 75.61525993 23.82092065 74.7286568 26.97265625 74.09765625 C30.81080603 73.87983329 34.65260006 73.84169329 38.49609375 73.78125 C39.59740631 73.7604689 40.69871887 73.73968781 41.83340454 73.71827698 C45.33809398 73.65309435 48.84285591 73.59404228 52.34765625 73.53515625 C54.72917405 73.49194127 57.11068462 73.44832603 59.4921875 73.40429688 C65.31893465 73.29744513 71.14575328 73.19562158 76.97265625 73.09765625 C76.2957865 77.61968044 75.24314827 81.07327318 73.16015625 85.16015625 C72.65871094 86.16175781 72.15726563 87.16335937 71.640625 88.1953125 C71.09019531 89.15308594 70.53976562 90.11085938 69.97265625 91.09765625 C69.48619629 91.96938477 68.99973633 92.84111328 68.49853516 93.73925781 C64.64007689 97.34187785 60.99222064 96.78877721 55.890625 96.734375 C54.88542313 96.74475296 53.88022125 96.75513092 52.84455872 96.76582336 C49.61608184 96.79552501 46.38874454 96.79215446 43.16015625 96.78515625 C30.54589241 96.82116642 17.97854568 96.91782099 5.3984375 97.9296875 C4.46589645 97.99862717 3.53335541 98.06756683 2.57255554 98.13859558 C-3.11568617 98.64844643 -7.76960069 99.85693382 -13.02734375 102.09765625 C-14.19501292 99.76231792 -14.18215726 98.32340778 -14.23266602 95.71948242 C-14.25260117 94.80222885 -14.27253632 93.88497528 -14.29307556 92.93992615 C-14.30979813 91.93365677 -14.32652069 90.92738739 -14.34375 89.890625 C-14.36462173 88.83774796 -14.38549347 87.78487091 -14.40699768 86.7000885 C-14.47360845 83.22852273 -14.5322761 79.75688305 -14.58984375 76.28515625 C-14.62111359 74.51863708 -14.62111359 74.51863708 -14.65301514 72.71643066 C-14.95420004 55.59390902 -15.1310107 38.47280521 -15.15234375 21.34765625 C-15.15493195 20.36936859 -15.15752014 19.39108093 -15.16018677 18.38314819 C-15.16595092 15.64732032 -15.16452553 12.91160949 -15.16015625 10.17578125 C-15.16213516 9.36480484 -15.16411407 8.55382843 -15.16615295 7.71827698 C-15.14277789 2.21309039 -15.14277789 2.21309039 -14.02734375 1.09765625 C-9.31402792 0.25800591 -4.78109494 -0.02124931 0 0 Z " fill="#9F1919" transform="translate(459.02734375,140.90234375)"/>
</svg>
